# xmcd
#
# Track frame offsets:
#	150
#	13736
#	28209
#	45201
#	58563
#	74891
#	95140
#	112655
#	131088
#	145619
#	166668
#
# Disc length: 2403 seconds
#
# Revision: 0
# Processed by: cddbd v1.4PL0 Copyright (c) Steve Scherf et al.
# Submitted via: OrangeCD 4.1
#
DISCID=9209610b
DTITLE=Don Francisco - Come Away
DYEAR=1900
DGENRE=
TTITLE0=Come Away
TTITLE1=Cause and Effect
TTITLE2=Restin' in Jesus
TTITLE3=Forever Loved
TTITLE4=And The Spirit Sings
TTITLE5=Does God Still Get the Blues?
TTITLE6=The Fast
TTITLE7=Son of Righteousness
TTITLE8=Freedom to Move
TTITLE9=Feed My Sheep
TTITLE10=Come Away (reprise)
EXTD=
EXTT0=
EXTT1=
EXTT2=
EXTT3=
EXTT4=
EXTT5=
EXTT6=
EXTT7=
EXTT8=
EXTT9=
EXTT10=
PLAYORDER=
